<svg width="94" height="73" viewBox="0 0 94 73" fill="none" xmlns="http://www.w3.org/2000/svg">
<path d="M0 21.2364C0 13.8029 0 10.0862 1.45067 7.24704C2.72672 4.74961 4.76285 2.71914 7.26724 1.44664C10.1144 0 13.8414 0 21.2956 0H68.5451C75.9993 0 79.7264 0 82.5735 1.44664C85.0779 2.71914 87.114 4.74961 88.39 7.24704C89.5011 9.42164 89.7612 12.111 89.8221 16.5909H66.5487C60.3471 16.5909 57.2463 16.5909 54.8004 17.6012C51.5391 18.9483 48.9481 21.5322 47.5972 24.7844C46.5841 27.2235 46.5841 30.3157 46.5841 36.5C46.5841 42.6843 46.5841 45.7765 47.5972 48.2156C48.9481 51.4678 51.5391 54.0517 54.8004 55.3988C57.2463 56.4091 60.3471 56.4091 66.5487 56.4091H89.8221C89.7612 60.889 89.5011 63.5784 88.39 65.753C87.114 68.2504 85.0779 70.2809 82.5735 71.5534C79.7264 73 75.9993 73 68.5451 73H21.2956C13.8414 73 10.1144 73 7.26724 71.5534C4.76285 70.2809 2.72672 68.2504 1.45067 65.753C0 62.9138 0 59.1971 0 51.7636V21.2364Z" fill="white"/>
<path fill-rule="evenodd" clip-rule="evenodd" d="M52.4071 35.6705C52.4071 31.0246 52.4071 28.7016 53.3138 26.9271C54.1113 25.3662 55.3839 24.0972 56.9491 23.3019C58.7285 22.3977 61.058 22.3977 65.7168 22.3977H80.6903C85.3491 22.3977 87.6785 22.3977 89.458 23.3019C91.0232 24.0972 92.2958 25.3662 93.0933 26.9271C94 28.7016 94 31.0246 94 35.6705V37.3295C94 41.9754 94 44.2984 93.0933 46.0729C92.2958 47.6338 91.0232 48.9028 89.458 49.6981C87.6785 50.6023 85.3491 50.6023 80.6903 50.6023H65.7168C61.058 50.6023 58.7285 50.6023 56.9491 49.6981C55.3839 48.9028 54.1113 47.6338 53.3138 46.0729C52.4071 44.2984 52.4071 41.9754 52.4071 37.3295V35.6705ZM73.2035 36.5C73.2035 40.1652 70.2241 43.1364 66.5487 43.1364C62.8733 43.1364 59.8938 40.1652 59.8938 36.5C59.8938 32.8348 62.8733 29.8636 66.5487 29.8636C70.2241 29.8636 73.2035 32.8348 73.2035 36.5Z" fill="white"/>
</svg>
