<svg width="456" height="456" viewBox="0 0 456 456" fill="none" xmlns="http://www.w3.org/2000/svg">
<rect width="456" height="456" fill="url(#paint0_radial_8056_11)"/>
<path d="M143 200.691C143 187.148 143 180.376 145.624 175.204C147.931 170.653 151.614 166.954 156.143 164.636C161.292 162 168.032 162 181.513 162H266.965C280.446 162 287.186 162 292.335 164.636C296.864 166.954 300.547 170.653 302.854 175.204C304.864 179.165 305.334 184.065 305.444 192.227H263.354C252.138 192.227 246.531 192.227 242.107 194.068C236.209 196.522 231.523 201.23 229.08 207.155C227.248 211.599 227.248 217.233 227.248 228.5C227.248 239.767 227.248 245.401 229.08 249.845C231.523 255.77 236.209 260.478 242.107 262.932C246.531 264.773 252.138 264.773 263.354 264.773H305.444C305.334 272.935 304.864 277.835 302.854 281.796C300.547 286.347 296.864 290.046 292.335 292.364C287.186 295 280.446 295 266.965 295H181.513C168.032 295 161.292 295 156.143 292.364C151.614 290.046 147.931 286.347 145.624 281.796C143 276.624 143 269.852 143 256.309V200.691Z" fill="white"/>
<path fill-rule="evenodd" clip-rule="evenodd" d="M237.779 226.989C237.779 218.524 237.779 214.292 239.418 211.059C240.861 208.215 243.162 205.903 245.993 204.454C249.211 202.807 253.424 202.807 261.85 202.807H288.929C297.355 202.807 301.568 202.807 304.786 204.454C307.616 205.903 309.918 208.215 311.36 211.059C313 214.292 313 218.524 313 226.989V230.011C313 238.476 313 242.708 311.36 245.941C309.918 248.785 307.616 251.097 304.786 252.546C301.568 254.193 297.355 254.193 288.929 254.193H261.85C253.424 254.193 249.211 254.193 245.993 252.546C243.162 251.097 240.861 248.785 239.418 245.941C237.779 242.708 237.779 238.476 237.779 230.011V226.989ZM275.389 228.5C275.389 235.178 270.001 240.591 263.354 240.591C256.707 240.591 251.319 235.178 251.319 228.5C251.319 221.822 256.707 216.409 263.354 216.409C270.001 216.409 275.389 221.822 275.389 228.5Z" fill="white"/>
<defs>
<radialGradient id="paint0_radial_8056_11" cx="0" cy="0" r="1" gradientUnits="userSpaceOnUse" gradientTransform="translate(88.5 86.5) rotate(43.7917) scale(570.055)">
<stop stop-color="#10002C"/>
<stop offset="1" stop-color="#2F00FF"/>
</radialGradient>
</defs>
</svg>
